<svg class="main-svg" xmlns="http://www.w3.org/2000/svg" xmlns:xlink="http://www.w3.org/1999/xlink" width="700" height="500" style="" viewBox="0 0 700 500"><rect x="0" y="0" width="700" height="500" style="fill: rgb(255, 255, 255); fill-opacity: 1;"/><defs id="defs-db306c"><g class="clips"><clipPath id="clipdb306cxyplot" class="plotclip"><rect width="350" height="265"/></clipPath><clipPath class="axesclip" id="clipdb306cx"><rect x="80" y="0" width="350" height="500"/></clipPath><clipPath class="axesclip" id="clipdb306cy"><rect x="0" y="100" width="700" height="265"/></clipPath><clipPath class="axesclip" id="clipdb306cxy"><rect x="80" y="100" width="350" height="265"/></clipPath></g><g class="gradients"/></defs><g class="bglayer"><rect class="bg" x="80" y="100" width="350" height="265" style="fill: rgb(229, 236, 246); fill-opacity: 1; stroke-width: 0;"/></g><g class="layer-below"><g class="imagelayer"/><g class="shapelayer"/></g><g class="cartesianlayer"><g class="subplot xy"><g class="layer-subplot"><g class="shapelayer"/><g class="imagelayer"/></g><g class="gridlayer"><g class="x"/><g class="y"><path class="ygrid crisp" transform="translate(0,285.97)" d="M80,0h350" style="stroke: rgb(255, 255, 255); stroke-opacity: 1; stroke-width: 1px;"/><path class="ygrid crisp" transform="translate(0,223.93)" d="M80,0h350" style="stroke: rgb(255, 255, 255); stroke-opacity: 1; stroke-width: 1px;"/><path class="ygrid crisp" transform="translate(0,161.89)" d="M80,0h350" style="stroke: rgb(255, 255, 255); stroke-opacity: 1; stroke-width: 1px;"/></g></g><g class="zerolinelayer"><path class="yzl zl crisp" transform="translate(0,348.01)" d="M80,0h350" style="stroke: rgb(255, 255, 255); stroke-opacity: 1; stroke-width: 2px;"/></g><path class="xlines-below"/><path class="ylines-below"/><g class="overlines-below"/><g class="xaxislayer-below"/><g class="yaxislayer-below"/><g class="overaxes-below"/><g class="plot" transform="translate(80, 100)" clip-path="url('#clipdb306cxyplot')"><g class="barlayer mlayer"><g class="trace bars" style="opacity: 1;"><g class="points"><g class="point"><path d="M7,248.01V47.04H63V248.01Z" style="vector-effect: non-scaling-stroke; opacity: 1; stroke-width: 0.5px; fill: rgb(239, 85, 59); fill-opacity: 1; stroke: rgb(229, 236, 246); stroke-opacity: 1;"/></g><g class="point"><path d="M77,248.01V13.25H133V248.01Z" style="vector-effect: non-scaling-stroke; opacity: 1; stroke-width: 0.5px; fill: rgb(239, 85, 59); fill-opacity: 1; stroke: rgb(229, 236, 246); stroke-opacity: 1;"/></g><g class="point"><path d="M147,248.01V135.41H203V248.01Z" style="vector-effect: non-scaling-stroke; opacity: 1; stroke-width: 0.5px; fill: rgb(239, 85, 59); fill-opacity: 1; stroke: rgb(229, 236, 246); stroke-opacity: 1;"/></g><g class="point"><path d="M217,248.01V99.25H273V248.01Z" style="vector-effect: non-scaling-stroke; opacity: 1; stroke-width: 0.5px; fill: rgb(239, 85, 59); fill-opacity: 1; stroke: rgb(229, 236, 246); stroke-opacity: 1;"/></g><g class="point"><path d="M287,248.01V53.42H343V248.01Z" style="vector-effect: non-scaling-stroke; opacity: 1; stroke-width: 0.5px; fill: rgb(239, 85, 59); fill-opacity: 1; stroke: rgb(229, 236, 246); stroke-opacity: 1;"/></g></g></g></g><g class="scatterlayer mlayer"><g class="trace scatter tracecc8926" style="stroke-miterlimit: 2; opacity: 1;"><g class="fills"/><g class="errorbars"/><g class="lines"><path class="js-line" d="M35,248L315,247.95" style="vector-effect: non-scaling-stroke; fill: none; stroke: rgb(99, 110, 250); stroke-opacity: 1; stroke-width: 2px; opacity: 1;"/></g><g class="points"><path class="point" transform="translate(35,248)" d="M3,0A3,3 0 1,1 0,-3A3,3 0 0,1 3,0Z" style="opacity: 1; stroke-width: 0px; fill: rgb(99, 110, 250); fill-opacity: 1;"/><path class="point" transform="translate(105,247.99)" d="M3,0A3,3 0 1,1 0,-3A3,3 0 0,1 3,0Z" style="opacity: 1; stroke-width: 0px; fill: rgb(99, 110, 250); fill-opacity: 1;"/><path class="point" transform="translate(175,247.98)" d="M3,0A3,3 0 1,1 0,-3A3,3 0 0,1 3,0Z" style="opacity: 1; stroke-width: 0px; fill: rgb(99, 110, 250); fill-opacity: 1;"/><path class="point" transform="translate(245,247.96)" d="M3,0A3,3 0 1,1 0,-3A3,3 0 0,1 3,0Z" style="opacity: 1; stroke-width: 0px; fill: rgb(99, 110, 250); fill-opacity: 1;"/><path class="point" transform="translate(315,247.95)" d="M3,0A3,3 0 1,1 0,-3A3,3 0 0,1 3,0Z" style="opacity: 1; stroke-width: 0px; fill: rgb(99, 110, 250); fill-opacity: 1;"/></g><g class="text"/></g></g></g><g class="overplot"/><path class="xlines-above crisp" d="M0,0" style="fill: none;"/><path class="ylines-above crisp" d="M0,0" style="fill: none;"/><g class="overlines-above"/><g class="xaxislayer-above"><g class="xtick"><text text-anchor="start" x="0" y="384" transform="translate(115,0) rotate(30,0,375)" style="font-family: 'Courier New', monospace; font-size: 18px; fill: rgb(102, 51, 153); fill-opacity: 1; white-space: pre;">Massachusetts</text></g><g class="xtick"><text text-anchor="start" x="0" y="384" transform="translate(185,0) rotate(30,0,375)" style="font-family: 'Courier New', monospace; font-size: 18px; fill: rgb(102, 51, 153); fill-opacity: 1; white-space: pre;">New Jersey</text></g><g class="xtick"><text text-anchor="start" x="0" y="384" transform="translate(255,0) rotate(30,0,375)" style="font-family: 'Courier New', monospace; font-size: 18px; fill: rgb(102, 51, 153); fill-opacity: 1; white-space: pre;">Florida</text></g><g class="xtick"><text text-anchor="start" x="0" y="384" transform="translate(325,0) rotate(30,0,375)" style="font-family: 'Courier New', monospace; font-size: 18px; fill: rgb(102, 51, 153); fill-opacity: 1; white-space: pre;">Washington</text></g><g class="xtick"><text text-anchor="start" x="0" y="384" transform="translate(395,0) rotate(30,0,375)" style="font-family: 'Courier New', monospace; font-size: 18px; fill: rgb(102, 51, 153); fill-opacity: 1; white-space: pre;">New Hampshire</text></g></g><g class="yaxislayer-above"><g class="ytick"><text text-anchor="end" x="79" y="6.3" transform="translate(0,348.01)" style="font-family: 'Courier New', monospace; font-size: 18px; fill: rgb(102, 51, 153); fill-opacity: 1; white-space: pre;">0</text></g><g class="ytick"><text text-anchor="end" x="79" y="6.3" transform="translate(0,285.97)" style="font-family: 'Courier New', monospace; font-size: 18px; fill: rgb(102, 51, 153); fill-opacity: 1; white-space: pre;">5k</text></g><g class="ytick"><text text-anchor="end" x="79" y="6.3" transform="translate(0,223.93)" style="font-family: 'Courier New', monospace; font-size: 18px; fill: rgb(102, 51, 153); fill-opacity: 1; white-space: pre;">10k</text></g><g class="ytick"><text text-anchor="end" x="79" y="6.3" transform="translate(0,161.89)" style="font-family: 'Courier New', monospace; font-size: 18px; fill: rgb(102, 51, 153); fill-opacity: 1; white-space: pre;">15k</text></g></g><g class="overaxes-above"/></g></g><g class="polarlayer"/><g class="ternarylayer"/><g class="geolayer"/><g class="funnelarealayer"/><g class="pielayer"/><g class="treemaplayer"/><g class="sunburstlayer"/><g class="glimages"/><defs id="topdefs-db306c"><g class="clips"/><clipPath id="legenddb306c"><rect width="251" height="87" x="0" y="0"/></clipPath></defs><g class="layer-above"><g class="imagelayer"/><g class="shapelayer"/></g><g class="infolayer"><g class="legend" pointer-events="all" transform="translate(437, 100)"><rect class="bg" shape-rendering="crispEdges" style="stroke: rgb(68, 68, 68); stroke-opacity: 1; fill: rgb(255, 255, 255); fill-opacity: 1; stroke-width: 0px;" width="251" height="87" x="0" y="0"/><g class="scrollbox" transform="translate(0, 0)" clip-path="url('#legenddb306c')"><text class="legendtitletext" text-anchor="start" x="2" y="23.400000000000002" style="font-family: 'Courier New', monospace; font-size: 18px; fill: rgb(102, 51, 153); fill-opacity: 1; white-space: pre;">Legend</text><g class="groups"><g class="traces" transform="translate(0, 41.6)" style="opacity: 1;"><text class="legendtext" text-anchor="start" x="40" y="7.0200000000000005" style="font-family: 'Courier New', monospace; font-size: 18px; fill: rgb(102, 51, 153); fill-opacity: 1; white-space: pre;">Top 5 Rank By State</text><g class="layers" style="opacity: 1;"><g class="legendfill"/><g class="legendlines"><path class="js-line" d="M5,0h30" style="fill: none; stroke: rgb(99, 110, 250); stroke-opacity: 1; stroke-width: 2px;"/></g><g class="legendsymbols"><g class="legendpoints"><path class="scatterpts" transform="translate(20,0)" d="M3,0A3,3 0 1,1 0,-3A3,3 0 0,1 3,0Z" style="opacity: 1; stroke-width: 0px; fill: rgb(99, 110, 250); fill-opacity: 1;"/></g></g></g><rect class="legendtoggle" pointer-events="all" x="0" y="-13.200000000000001" width="245.234375" height="26.400000000000002" style="cursor: pointer; fill: rgb(0, 0, 0); fill-opacity: 0;"/></g><g class="traces" transform="translate(0, 68)" style="opacity: 1;"><text class="legendtext" text-anchor="start" x="40" y="7.0200000000000005" style="font-family: 'Courier New', monospace; font-size: 18px; fill: rgb(102, 51, 153); fill-opacity: 1; white-space: pre;">Cost Per Student</text><g class="layers" style="opacity: 1;"><g class="legendfill"/><g class="legendlines"/><g class="legendsymbols"><g class="legendpoints"><path class="legendundefined" d="M6,6H-6V-6H6Z" transform="translate(20,0)" style="stroke-width: 0.5px; fill: rgb(239, 85, 59); fill-opacity: 1; stroke: rgb(229, 236, 246); stroke-opacity: 1;"/></g></g></g><rect class="legendtoggle" pointer-events="all" x="0" y="-13.200000000000001" width="245.234375" height="26.400000000000002" style="cursor: pointer; fill: rgb(0, 0, 0); fill-opacity: 0;"/></g></g></g><rect class="scrollbar" rx="20" ry="3" width="0" height="0" style="fill: rgb(128, 139, 164); fill-opacity: 1;" x="0" y="0"/></g><g class="g-gtitle"><text class="gtitle" x="35" y="50" text-anchor="start" dy="0em" style="font-family: 'Courier New', monospace; font-size: 25px; fill: rgb(102, 51, 153); opacity: 1; font-weight: normal; white-space: pre;">Top 5 EDU State Rank and Cost</text></g><g class="g-xtitle"><text class="xtitle" x="255" y="487.7427734375" text-anchor="middle" style="font-family: 'Courier New', monospace; font-size: 22px; fill: rgb(102, 51, 153); opacity: 1; font-weight: normal; white-space: pre;">Overall State Ranking</text></g><g class="g-ytitle" transform="translate(1.806640625,0)"><text class="ytitle" transform="rotate(-90,16.19375,232.5)" x="16.19375" y="232.5" text-anchor="middle" style="font-family: 'Courier New', monospace; font-size: 22px; fill: rgb(102, 51, 153); opacity: 1; font-weight: normal; white-space: pre;">Cost Per Student</text></g></g></svg>